<?xml version="1.0" encoding="utf-8"?>
<!-- Generator: Adobe Illustrator 27.8.1, SVG Export Plug-In . SVG Version: 6.00 Build 0)  -->
<svg version="1.1" id="Layer_1" xmlns="http://www.w3.org/2000/svg" xmlns:xlink="http://www.w3.org/1999/xlink" width="170" height="112" x="0px" y="0px"
	 viewBox="0 0 170 117" style="enable-background:new 0 0 170 117;" xml:space="preserve">
<style type="text/css">
	.st0{fill-rule:evenodd;clip-rule:evenodd;fill:#F3F4F4;}
	.st1{fill-rule:evenodd;clip-rule:evenodd;fill:#D6D7D6;}
	.st2{fill-rule:evenodd;clip-rule:evenodd;fill:#F7D227;}
	.st3{fill:#4B649D;}
	.st4{fill-rule:evenodd;clip-rule:evenodd;fill:#FFFFFF;}
	.st5{fill:none;stroke:#4B649D;stroke-width:0.293;}
</style>
<g>
	<path class="st0" d="M67.59,18.74c0.61,0.5-0.77,0.67-1.08,0.33c0.12-0.5,0.38,0.15,0.72,0c0.14-0.04,0.21-0.14,0.18-0.33
		C67.47,18.74,67.53,18.74,67.59,18.74z"/>
	<path class="st0" d="M99.25,29.72c0.41,0.71,0.06,2.13,0.18,3.11C99.01,32.12,99.36,30.7,99.25,29.72z"/>
	<path class="st1" d="M104.82,12.69c1.52,0.39-1.31-1.06-1.26-0.65C103.93,12.04,104.41,12.58,104.82,12.69z M98.53,9.9
		c1.48,0.45-2.39-1.03-2.33-0.98C97.06,9.58,97.93,9.72,98.53,9.9 M82.16,3.84c-2.2,1.11-4.4,2.64-6.66,3.93
		c-2.25,1.29-4.99,2.18-6.29,3.93C73.2,8.79,78.14,6.74,82.16,3.84 M67.59,11.87c5.25-2.91,10.43-5.9,15.47-9.01
		C83.03,2,83.34,1.8,83.42,1.38c0.72-0.45,0.98,0.68,1.8,0.65c2.34,3.06,6.53,4.43,10.25,6.22c-0.45,0.29-0.29,0.3,0.18,0.49
		c0.28-0.09,0.01-0.17-0.18-0.16c1.65-0.03,3.32,1.34,5.04,1.8c-0.24,0.41-0.8-0.24-1.26-0.16c0.4,0.35,1.6,0.87,1.44,0.33
		c3.58,1.33,8.24,2.63,11.49,4.26c0.93,1.89,2.84,3.55,2.34,6.22c-0.31-0.06-0.34,0.13-0.36,0.33c-1.13,0.26-1.42-0.7-2.16-1.15
		c-1.42-0.86-4.15-1.18-5.73-1.8C98.98,15.56,91.33,12.4,85.76,8.1c-4.41,1.85-9.52,4.77-14.03,7.53c-1.67,1.02-3.41,1.81-4.13,3.11
		c-0.06,0-0.12,0-0.18,0c0.03,0.19-0.04,0.29-0.18,0.33c-0.34,0.15-0.6-0.5-0.72,0c-1.6,0.52-3.58,1.82-5.4,2.94
		c-2.06,1.28-3.52,2.98-6.3,3.11c-3.11-2.94-0.16-6.41,3.06-7.7c-0.96-0.41,9.82-5.01,9.71-4.91c0-0.33,0.49-0.21,0.36-0.66
		C67.83,11.87,67.7,11.87,67.59,11.87"/>
	<path class="st0" d="M63.27,11.54c0.38-0.08,0.34,0.24,0.36,0.49c0.37,0.09,1.18-0.2,1.25,0.16c-0.3,0-0.6,0-0.89,0
		C63.42,12.27,63.49,11.78,63.27,11.54z"/>
	<path class="st0" d="M69.21,11.7c1.31-1.75,4.05-2.64,6.29-3.93c2.26-1.3,4.46-2.82,6.66-3.93C78.14,6.74,73.2,8.79,69.21,11.7z"/>
	<path class="st0" d="M96.19,8.92c-0.05-0.05,3.81,1.43,2.33,0.98C97.93,9.72,97.06,9.58,96.19,8.92z"/>
	<path class="st0" d="M103.56,12.03c-0.04-0.4,2.78,1.05,1.26,0.65C104.41,12.58,103.93,12.04,103.56,12.03z"/>
	<path class="st1" d="M68.57,68.1c0.01,2.41,0.05,3.19-0.17,5.73c0.13,0.3,0.19-0.1,0.17-0.33c-0.2,4.21,2.6,21.7-4.03,19.19
		c0.3-16.95,0.48-42.19,0.18-58.88c-1.47,0.02-2.12,0.8-3.41,0.98c0.06,16.38-0.05,41.2-0.18,57.41c-0.54,0-1.08,0-1.62,0
		c0-16.1,0-40.81,0-56.92c-1.45,0.43-4.73,0.61-6.48,1.31c-0.25-0.66-0.33-0.85-1.08-1.15c0.02-0.77,0.06-1.99,0.36-2.95
		c6.65-2.19,13.28-4.52,20.5-6.06c2.34-0.5,4.11-1.13,6.56-0.82c1.87-1.13,6.69-1.12,10.17-1.47c2.94-0.3,6.01-0.61,8.63-0.65
		c4.24-0.07,10.38-0.41,14.37,0.16c1.42,1.27,2.16,3.27,1.25,5.57c-1.85,0.76-5.56-0.88-6.81-0.66c0.23,10.06-1.67,54.51-1.41,64.44
		c-0.31-1.09,0.41-4.15,0.43-2.8c-2.15,3.02-0.01,3.23-3.66,3.23c-0.06-8.11,0.25-56.16,0.14-65.04c-0.82-0.41-2.34-0.07-3.24,0
		c0,0.44,0,0.87,0,1.31c0.12,0.98-0.23,2.4,0.18,3.11c0.08,9.91-0.34,48.51-0.18,56.89c0,1.1,0-0.4,0,0.69
		c0.4,0.51-0.44,2.88-0.18,3.11c-0.45-0.41,0-1.85,0-3.11c0-1.94-0.2,5.17-0.08,4.36c-0.08,0.44-1.14-3.42-0.82-2.6
		c-0.41-10.92-0.06-52.41-0.18-63.6c-3.62,0.25-8.13,0.44-11.42,0.99c0.9,2.27,0.88,6.92,0.9,9.66c0.04,4.83-0.58,47.34-0.18,53.25
		c-0.41-0.12-0.07-0.92-0.19-1.31c-0.01,1.62-0.93,0.78-1.08,2.28c-0.37-0.08-1.74-0.97-2.96,0.26c-0.17-7.74,0.02-55.04-0.46-63.66
		c-0.46-0.03-1.93,0.42-2.88,0.49c0,7.31,0-0.37,0,6.94c-0.64,0.09-0.54-0.49-0.54-0.98c-0.38,0.58,0.02,1.14-0.9,0.98
		c-0.83-6.51-0.13,0.53-0.36-6.61c-3.83,0.12-6.28,0.9-9.36,1.7c0.38,1.8,0.5,6.46,0.54,9.01c0.07,4.34-0.26,8.21-0.54,12.77
		c0.16,0.29,0.5,0.41,0.36,0.98c-0.09,0.74,0.2,2.69-0.18,2.62c0-0.98,0-1.96,0-2.95c-0.37,3.3-0.08,6.7-0.18,10.48
		C68.63,66.31,68.47,67.78,68.57,68.1z"/>
	<path class="st1" d="M77.75,93.9c0.04-3.61-0.04-52.08,0-55.98c0.02-1.05-0.37-2.56,0.72-3.11c0.62,0.2,0.28,1.28,0.36,1.97
		c0.56-0.36-0.28-2.01,0.53-2.13c0.83,4.3,0.13,55.06,0.36,59.91C79.34,94.86,78.41,93.84,77.75,93.9z"/>
	<path class="st2" d="M58.13,8.57c1.43-1.36,3.82-1.81,5.37-3.06c0.26-1.94,0.65-3.74,1.08-5.51c0.19,0.09,0.38,0.18,0.43,0.41
		c0.88,1.27,1.57,2.73,2.58,3.88c0.3,0.01,0.61,0.03,0.64-0.21c0.36,0,0.72,0,1.08,0c1.14-0.07,2.08-0.34,3.23-0.41
		c0.14,0,0.29,0,0.43,0c0.16,0.56-0.43,0.41-0.43,0.82c-1.09,0.73-1.53,2.09-2.58,2.86c0.65,1.29,1.37,2.51,1.94,3.88
		c-4.06-1.34-8.1-0.6-8.6,3.47c-0.55-0.16-0.55-0.84-0.86-1.23c-0.33-1.13-0.37-1.84-0.21-3.06c0.06-0.41,0.58-0.4,0.64-0.82
		c-1.04-0.51-2.46-0.65-3.87-0.82C58.95,8.47,58.47,8.59,58.13,8.57z"/>
	<path class="st3" d="M65.01,0.41c1.45,0.33,1.59,1.9,2.37,2.86c0.25,0.31,0.18,0.91,0.85,0.82C68.2,4.32,67.89,4.3,67.6,4.29
		C66.58,3.14,65.9,1.68,65.01,0.41z"/>
	<path class="st3" d="M45.19,15.97c1.61,0.38,1.77,2.16,2.64,3.24c0.28,0.35,0.2,1.03,0.95,0.93c-0.04,0.27-0.38,0.25-0.71,0.23
		C46.94,19.08,46.18,17.42,45.19,15.97z"/>
	<path class="st3" d="M38.29,38.72c1.61,0.38,1.77,2.15,2.64,3.24c0.28,0.35,0.2,1.04,0.95,0.93c-0.04,0.27-0.38,0.25-0.71,0.23
		C40.03,41.82,39.27,40.16,38.29,38.72z"/>
	<path class="st3" d="M58.99,8.77c1.41,0.16,2.83,0.31,3.87,0.82c-0.06,0.42-0.59,0.4-0.64,0.82C61.31,9.8,58.41,10.12,58.99,8.77z"
		/>
	<path class="st2" d="M38.69,24.47c-0.07,0-0.14,0-0.22,0c1.36-1.44,3.7-1.93,5.38-3.06c-0.04-2.16,0.84-3.41,0.86-5.51
		c0.35-0.06,0.37,0.2,0.64,0.21c0,0.07,0,0.13,0,0.2c0.9,1.26,1.54,2.75,2.58,3.87c0.25,0.04,0.38-0.04,0.43-0.2
		c1.72,0.07,2.91-0.37,4.51-0.41c1.01,0.02-0.23,0.29,0,0.81c-1.1,0.73-1.71,1.92-2.58,2.86c-0.01,0.62,0.46,0.79,0.64,1.23
		c0.5,0.82,0.85,1.79,1.29,2.65c-4.19-1.53-8.1-0.39-8.81,3.47c-0.45-0.87-0.99-1.64-1.08-2.86c0-0.34,0-0.68,0-1.02
		c0.39-0.03,0.13-0.69,0.43-0.82c0.21,0,0.16-0.25,0.22-0.4c-0.82-0.65-2.32-0.66-3.66-0.82C39.3,24.43,38.95,24.5,38.69,24.47z"/>
	<path class="st3" d="M52.89,20.38c0.22,0,0.43,0,0.65,0c-0.35,1.85-1.99,2.47-2.58,4.08c-0.19-0.43-0.65-0.6-0.64-1.23
		C51.18,22.3,51.79,21.11,52.89,20.38z"/>
	<path class="st3" d="M39.34,24.67c1.34,0.15,2.84,0.16,3.66,0.82c-0.05,0.16-0.01,0.4-0.22,0.4c-1.04,0.37-2.65-0.29-3.66-0.61
		c0-0.2,0-0.41,0-0.61C39.2,24.67,39.27,24.67,39.34,24.67z"/>
	<path class="st3" d="M52.24,27.12c0,0.2,0.17,0.24,0.22,0.4c-1.88,1.16-2.56-0.29-4.09-0.21c-3,0.18-3.79,4.37-4.95,3.27
		C44.14,26.73,48.06,25.59,52.24,27.12z"/>
	<path class="st2" d="M31.91,47.09c1.63-0.96,3.38-1.82,5.16-2.65c0.25-2,0.74-3.79,1.08-5.71c0.2,0.09,0.38,0.18,0.43,0.41
		c0.81,1.28,1.69,2.47,2.37,3.88c0.52-0.13,1.56,0.26,1.72-0.21c1.56,0.12,2.5-0.35,3.87-0.41c0.16,0.56-0.43,0.41-0.43,0.82
		c-0.61,1.25-3.18,2.38-1.93,4.08c0.39,0.99,1.14,1.64,1.29,2.86c-3.86-1.69-7.97-0.68-8.6,3.26c-0.99-0.73-1.4-2.98-0.86-4.49
		c0.08-0.26,0.38-0.32,0.43-0.61c-1.01-0.34-2.03-0.66-3.44-0.61C32.84,47.29,31.97,47.57,31.91,47.09z"/>
	<path class="st3" d="M46.1,43.21c0.21,0,0.43,0,0.65,0c0.08,2.18-2.2,2.14-2.15,4.29c-0.22,0-0.26-0.16-0.43-0.2
		C42.92,45.59,45.49,44.46,46.1,43.21z"/>
	<path class="st3" d="M32.98,47.7c1.42-0.05,2.43,0.27,3.44,0.61c-0.05,0.29-0.36,0.35-0.43,0.61c-1.39-0.03-2.6-0.25-3.44-0.81
		C32.58,47.86,32.62,47.63,32.98,47.7z"/>
	<path class="st3" d="M45.45,50.15c0.16,0.04,0.42,0,0.43,0.2c-1.12,1.33-2.99-0.17-4.51,0c-2.56,0.28-2.95,2.6-4.3,3.47
		c-0.4,0.01-0.45-0.16-0.21-0.41C37.49,49.47,41.59,48.46,45.45,50.15z"/>
	<path class="st2" d="M46.76,64.81c1.75-0.72,3.35-1.58,4.95-2.45c0.19-2.06,0.75-3.78,1.07-5.71c0.2,0.09,0.39,0.18,0.43,0.41
		c0.74,1.48,1.71,2.74,2.58,4.08c0.31,0.02,0.61,0.03,0.65-0.2c1.5,0.07,2.58-0.27,3.87-0.41c0.28,0,0.57,0,0.86,0
		c0.16,0.56-0.43,0.41-0.43,0.82c-1.03,0.8-1.61,2.01-2.58,2.86c0.2,0.56,0.66,0.87,0.86,1.43c0.22,0.82,1.19,1.99,1.08,2.45
		c-3.98-1.48-8.21-0.57-8.6,3.47c-0.94-0.77-1.44-2.95-0.86-4.49c0.08-0.27,0.38-0.32,0.43-0.61c-0.83-0.64-2.28-0.7-3.65-0.82
		C47.17,65.29,46.04,65.47,46.76,64.81z"/>
	<path class="st3" d="M60.73,61.34c0.31-0.08,0.36-0.25,0.64,0c0.18,1.56-2.14,2.44-2.37,4.29c-0.2-0.56-0.66-0.87-0.86-1.43
		C59.12,63.35,59.7,62.13,60.73,61.34z"/>
	<path class="st3" d="M47.4,65.63c1.37,0.12,2.82,0.18,3.65,0.82c-0.05,0.29-0.35,0.34-0.43,0.61c-1.19-0.34-3.86-0.23-3.44-1.43
		C47.26,65.63,47.33,65.63,47.4,65.63z"/>
	<path class="st3" d="M60.09,68.08c0.05,0.38,0.36-0.11,0.43,0.21c-1.32,1.77-2.12-0.16-4.3,0c-1.33,0.09-2.91,1.37-3.44,2.04
		c-0.47,0.6-0.6,2.56-1.29,1.23C51.88,67.5,56.11,66.59,60.09,68.08z"/>
	<path class="st0" d="M67.38,3.27c0.46-0.1,0.4,0.29,0.43,0.61c0.45,0.12,1.42-0.25,1.5,0.21c-0.36,0-0.72,0-1.08,0
		C67.56,4.17,67.63,3.57,67.38,3.27z"/>
	<path class="st3" d="M62.43,13.47c0.32,0.38,0.32,1.06,0.86,1.23c0.5-4.07,4.54-4.81,8.6-3.47c-0.57-1.37-1.29-2.59-1.94-3.88
		c1.05-0.77,1.48-2.13,2.58-2.86c0.13-0.12,1.02-0.48,1.08,0c-1.12,2.34-3.59,4.35-1.08,6.94c-0.38,0.18-0.35,0.75-0.86,0.81
		c-4.28-1.19-6.61,0.62-7.96,3.26C62.61,15.61,62.21,13.96,62.43,13.47z"/>
	<path class="st3" d="M53.2,57.06c1.76,0.64,1.73,2.99,3.23,3.88c-0.04,0.24-0.34,0.22-0.65,0.2C54.91,59.79,53.95,58.53,53.2,57.06
		z"/>
	<path class="st4" d="M92.64,54.48c0,0,11.64-0.9,12.28,1.35c0.64,2.25,1.08-2.03,7.12-2.47c6.03-0.45,4.52,26.31,4.52,27.43
		c0,1.12-9.48-1.12-9.48-1.12s2.03,16.01-2.06,16.01c-10.14,0-14.11,0.8-13.79-5.45"/>
	<path class="st3" d="M39.24,112.08c-0.05-0.38-0.12-0.69-0.21-0.92c-0.1-0.22-0.22-0.4-0.38-0.51c-0.16-0.12-0.35-0.2-0.59-0.23
		c-0.23-0.03-0.51-0.05-0.83-0.05c-0.07,0-0.14,0-0.2,0.01c-0.05,0.01-0.11,0.02-0.15,0.05c-0.04,0.03-0.08,0.07-0.1,0.12
		c-0.03,0.06-0.04,0.13-0.04,0.22v5.09h-0.8v-5.09c0-0.13-0.03-0.22-0.08-0.28c-0.05-0.06-0.12-0.09-0.19-0.11
		c-0.08-0.02-0.16-0.02-0.25-0.02c-0.09,0.01-0.17,0.01-0.25,0.01v-0.38h4.28l0.1,2.07L39.24,112.08L39.24,112.08z"/>
	<path class="st3" d="M44.21,115.87h-3.68v-5.09c0-0.13-0.01-0.22-0.05-0.28c-0.03-0.06-0.08-0.09-0.14-0.11
		c-0.06-0.02-0.12-0.02-0.2-0.02c-0.08,0.01-0.15,0.01-0.23,0.01v-0.38h4.13l0.1,2.07h-0.31c-0.04-0.36-0.11-0.65-0.2-0.87
		c-0.09-0.23-0.21-0.4-0.35-0.52c-0.15-0.12-0.34-0.21-0.56-0.25c-0.22-0.04-0.49-0.07-0.79-0.07c-0.08,0-0.15,0-0.23,0
		c-0.08,0-0.14,0.02-0.19,0.04c-0.05,0.02-0.1,0.07-0.13,0.12c-0.03,0.06-0.05,0.14-0.05,0.25v1.86c0.18-0.01,0.35-0.02,0.49-0.03
		c0.15-0.01,0.27-0.04,0.38-0.08c0.11-0.05,0.19-0.13,0.24-0.25c0.06-0.11,0.09-0.29,0.09-0.52h0.31v2.1h-0.31
		c0-0.24-0.04-0.42-0.09-0.53c-0.05-0.12-0.14-0.19-0.24-0.24c-0.1-0.04-0.23-0.07-0.37-0.07c-0.14,0-0.31-0.01-0.5-0.03v2.11
		c0,0.13,0.02,0.22,0.07,0.28c0.04,0.06,0.1,0.1,0.17,0.12c0.07,0.02,0.15,0.03,0.23,0.03c0.09-0.01,0.17-0.01,0.25-0.01
		c0.36,0,0.65-0.03,0.88-0.08c0.23-0.05,0.4-0.14,0.55-0.28c0.14-0.14,0.25-0.33,0.33-0.57c0.08-0.24,0.16-0.55,0.22-0.93h0.29
		L44.21,115.87z"/>
	<path class="st3" d="M48.33,111.65c0-0.32-0.04-0.57-0.13-0.75c-0.09-0.17-0.21-0.3-0.36-0.38c-0.15-0.07-0.33-0.12-0.53-0.13
		c-0.2-0.01-0.41-0.02-0.64-0.02c-0.14,0-0.24,0.02-0.3,0.08c-0.05,0.05-0.08,0.15-0.08,0.32v2.11c0.08,0.01,0.16,0.02,0.24,0.02
		c0.08,0.01,0.16,0.01,0.24,0.01c0.2,0,0.39-0.02,0.58-0.05c0.19-0.03,0.35-0.1,0.5-0.19c0.15-0.1,0.26-0.22,0.35-0.39
		C48.29,112.13,48.33,111.91,48.33,111.65z M49.18,111.63c0,0.28-0.05,0.52-0.14,0.71c-0.09,0.19-0.22,0.35-0.37,0.48
		c-0.15,0.12-0.33,0.22-0.53,0.28c-0.2,0.06-0.41,0.11-0.62,0.13c-0.22,0.03-0.43,0.04-0.64,0.04c-0.22,0-0.41-0.01-0.59-0.02v2.6
		h-1.35v-0.38c0.08,0,0.14,0,0.21,0c0.07,0,0.12-0.02,0.17-0.04c0.05-0.02,0.09-0.06,0.12-0.11c0.03-0.05,0.04-0.13,0.04-0.24v-4.31
		c0-0.11-0.01-0.19-0.04-0.24c-0.03-0.05-0.07-0.09-0.12-0.11c-0.05-0.02-0.11-0.03-0.17-0.04c-0.07,0-0.14,0-0.21,0V110h2.59
		c0.23,0,0.44,0.03,0.64,0.1c0.2,0.07,0.37,0.17,0.52,0.31c0.15,0.13,0.27,0.31,0.36,0.51C49.13,111.12,49.18,111.36,49.18,111.63"
		/>
	<path class="st3" d="M54.41,115.87v-5.34l-1.64,5.34h-0.28l-1.73-5.34v4.18v0.1c0,0.14,0.01,0.25,0.03,0.34
		c0.02,0.09,0.05,0.16,0.1,0.22c0.05,0.05,0.11,0.09,0.2,0.11c0.09,0.02,0.19,0.03,0.32,0.03v0.34h-1.68v-0.34
		c0.14,0,0.25-0.01,0.33-0.03c0.09-0.02,0.15-0.05,0.2-0.11c0.04-0.05,0.08-0.12,0.1-0.21c0.02-0.09,0.03-0.21,0.03-0.36v-4.04
		c0-0.12-0.02-0.21-0.05-0.27c-0.04-0.06-0.08-0.1-0.13-0.11c-0.05-0.02-0.12-0.02-0.19-0.02c-0.07,0.01-0.15,0.01-0.23,0.01v-0.38
		h1.6l1.42,4.49l1.37-4.49h1.01v5.86L54.41,115.87L54.41,115.87z"/>
	<path class="st3" d="M57.75,111.2l-0.83,2.35h1.69L57.75,111.2z M59.47,115.87l-0.72-1.91h-1.96c-0.07,0.18-0.14,0.36-0.22,0.55
		c-0.08,0.18-0.12,0.37-0.12,0.57c0,0.17,0.05,0.28,0.16,0.34c0.1,0.05,0.22,0.08,0.35,0.08v0.38h-1.52v-0.38
		c0.12,0,0.22-0.01,0.29-0.04c0.07-0.03,0.13-0.08,0.17-0.13c0.04-0.05,0.07-0.13,0.1-0.22c0.03-0.09,0.06-0.18,0.1-0.29l1.72-4.89
		h0.28l2.16,5.96L59.47,115.87"/>
	<path class="st3" d="M64.68,116.01l-3.26-4.92v3.57c0,0.15,0,0.27,0.02,0.38c0.01,0.11,0.04,0.2,0.08,0.27
		c0.04,0.07,0.11,0.12,0.2,0.16c0.08,0.04,0.2,0.05,0.35,0.05v0.34h-1.58v-0.34c0.14-0.01,0.25-0.05,0.33-0.11
		c0.08-0.07,0.13-0.14,0.16-0.24c0.03-0.1,0.05-0.21,0.06-0.33c0-0.12,0.01-0.24,0.01-0.37v-3.82c-0.07-0.12-0.15-0.2-0.24-0.23
		c-0.09-0.03-0.2-0.05-0.32-0.05V110h1.2l2.92,4.43V110h0.36v6.01L64.68,116.01L64.68,116.01z"/>
	<path class="st3" d="M66.36,115.87v-5.09c0-0.12-0.03-0.21-0.08-0.27c-0.05-0.06-0.12-0.1-0.2-0.11c-0.08-0.02-0.16-0.02-0.25-0.02
		c-0.09,0.01-0.17,0.01-0.26,0.01v-0.38h1.59v5.86L66.36,115.87L66.36,115.87z"/>
	<path class="st3" d="M71.94,115.87l-1.86-3.02l-0.82,0.96v1.28c0,0.13,0.01,0.22,0.04,0.27c0.02,0.06,0.07,0.1,0.11,0.11
		c0.05,0.02,0.11,0.02,0.17,0.02c0.07-0.01,0.14-0.01,0.21-0.01v0.38h-1.87v-0.38l0.1,0.01c0.13,0.01,0.24-0.01,0.32-0.07
		c0.09-0.05,0.13-0.16,0.13-0.33v-4.31c0-0.12-0.01-0.22-0.04-0.27c-0.03-0.06-0.07-0.1-0.11-0.12c-0.05-0.02-0.1-0.02-0.17-0.02
		c-0.07,0.01-0.14,0.01-0.22,0.01v-0.38h1.87v0.38c-0.03,0-0.05,0-0.06-0.01c-0.01,0-0.03-0.01-0.06-0.01
		c-0.13,0-0.23,0.03-0.31,0.09c-0.07,0.06-0.11,0.17-0.11,0.33v2.3l2.76-3.07h0.6l-1.99,2.22l2.26,3.64L71.94,115.87L71.94,115.87z"
		/>
	<path class="st3" d="M77.06,115.87v-2.86h-2.47v2.09c0,0.12,0.02,0.21,0.05,0.26c0.03,0.06,0.07,0.1,0.12,0.11
		c0.05,0.02,0.11,0.02,0.18,0.02c0.07-0.01,0.13-0.01,0.21-0.01v0.38h-1.9v-0.38l0.13,0.01c0.12,0.01,0.22-0.01,0.3-0.07
		c0.08-0.05,0.12-0.16,0.12-0.32v-4.33c0-0.13-0.01-0.22-0.04-0.27c-0.03-0.06-0.07-0.1-0.12-0.11c-0.05-0.02-0.11-0.02-0.17-0.02
		c-0.07,0.01-0.14,0.01-0.22,0.01v-0.38h1.9v0.38c-0.03,0-0.05,0-0.06-0.01c-0.01,0-0.03-0.01-0.06-0.01
		c-0.13,0-0.23,0.03-0.31,0.09c-0.08,0.06-0.12,0.17-0.12,0.32v1.82h2.47v-2.59h0.81v5.86L77.06,115.87L77.06,115.87z"/>
	<path class="st3" d="M84.57,115.87h-4.2v-0.39l1.86-2.51l-1.83-2.68v-0.28h4.08l0.13,2.07h-0.33c-0.04-0.25-0.08-0.48-0.13-0.69
		c-0.06-0.21-0.14-0.39-0.25-0.54c-0.11-0.15-0.24-0.26-0.41-0.34c-0.17-0.08-0.38-0.12-0.64-0.12h-1.42l1.55,2.25l-1.87,2.53
		c0.59,0,1.18,0,1.77,0c0.59,0,1.17,0,1.77-0.01L84.57,115.87z"/>
	<path class="st3" d="M88.87,110.58c-0.16,0.11-0.32,0.28-0.45,0.5l-0.98,1.55l2.01,3.25h-1.02l-1.47-2.5
		c-0.06,0.09-0.14,0.21-0.25,0.36c-0.11,0.15-0.22,0.32-0.33,0.48c-0.11,0.17-0.2,0.33-0.28,0.49c-0.08,0.16-0.12,0.29-0.12,0.4
		c0,0.09,0.02,0.16,0.07,0.21c0.04,0.05,0.1,0.09,0.16,0.12c0.06,0.03,0.13,0.04,0.21,0.04c0.08,0.01,0.14,0.01,0.2,0.01v0.38h-1.8
		v-0.38c0.15-0.01,0.28-0.05,0.38-0.11c0.09-0.06,0.17-0.14,0.25-0.23c0.07-0.09,0.14-0.2,0.19-0.32c0.06-0.12,0.12-0.23,0.2-0.36
		l0.92-1.46l-1.75-3.01h0.94l1.3,2.26c0.05-0.08,0.13-0.2,0.23-0.33c0.1-0.14,0.2-0.28,0.29-0.44c0.1-0.15,0.18-0.31,0.26-0.45
		c0.07-0.15,0.11-0.26,0.11-0.35c0-0.08,0-0.15-0.02-0.19c-0.02-0.04-0.04-0.08-0.08-0.1c-0.03-0.02-0.07-0.03-0.11-0.03
		c-0.04,0-0.09,0-0.15,0v-0.38h1.74v0.38C89.24,110.4,89.03,110.46,88.87,110.58z"/>
	<path class="st3" d="M93.85,112.88c0-0.29-0.02-0.59-0.07-0.9c-0.04-0.31-0.12-0.6-0.24-0.85c-0.11-0.26-0.27-0.47-0.48-0.64
		c-0.21-0.17-0.47-0.25-0.79-0.25c-0.22,0-0.41,0.04-0.58,0.12c-0.16,0.08-0.31,0.19-0.42,0.32c-0.12,0.14-0.21,0.3-0.28,0.48
		c-0.07,0.18-0.13,0.37-0.17,0.58c-0.04,0.2-0.07,0.4-0.08,0.61c-0.01,0.21-0.02,0.41-0.02,0.6c0,0.19,0.01,0.39,0.02,0.6
		c0.01,0.21,0.04,0.41,0.08,0.61s0.1,0.39,0.17,0.58c0.07,0.18,0.16,0.34,0.28,0.47c0.11,0.14,0.25,0.24,0.41,0.33
		c0.16,0.08,0.35,0.12,0.57,0.12c0.33,0,0.61-0.09,0.82-0.26c0.21-0.17,0.37-0.4,0.49-0.68c0.11-0.27,0.19-0.57,0.23-0.9
		C93.83,113.48,93.85,113.17,93.85,112.88z M94.79,112.99c0,0.4-0.06,0.79-0.18,1.15c-0.12,0.36-0.29,0.68-0.51,0.96
		c-0.22,0.28-0.49,0.5-0.79,0.66C93,115.92,92.66,116,92.28,116s-0.73-0.08-1.05-0.25c-0.31-0.16-0.57-0.38-0.79-0.66
		c-0.22-0.28-0.38-0.6-0.5-0.97c-0.12-0.37-0.17-0.76-0.17-1.18c0-0.39,0.06-0.78,0.18-1.15c0.12-0.37,0.29-0.7,0.51-0.99
		c0.22-0.28,0.49-0.51,0.79-0.68c0.31-0.17,0.65-0.25,1.03-0.25c0.39,0,0.74,0.08,1.05,0.25c0.32,0.17,0.58,0.4,0.8,0.69
		c0.22,0.28,0.38,0.62,0.5,1C94.74,112.19,94.79,112.58,94.79,112.99"/>
	<path class="st3" d="M98.79,115.87l-1.65-4.67c-0.03,0.1-0.09,0.25-0.17,0.46c-0.08,0.21-0.16,0.44-0.26,0.71
		c-0.09,0.26-0.19,0.53-0.29,0.83c-0.1,0.28-0.2,0.56-0.28,0.81c-0.09,0.25-0.15,0.48-0.21,0.67c-0.05,0.2-0.08,0.33-0.08,0.4
		c0,0.11,0.01,0.2,0.04,0.25c0.03,0.05,0.06,0.1,0.11,0.12c0.04,0.02,0.1,0.04,0.16,0.04c0.06,0,0.13,0,0.2,0v0.38h-1.53v-0.38
		c0.12,0,0.21-0.01,0.28-0.04c0.07-0.02,0.12-0.07,0.16-0.13c0.04-0.05,0.08-0.13,0.11-0.22c0.03-0.09,0.07-0.19,0.1-0.3l1.72-4.89
		h0.28l2.13,5.96L98.79,115.87L98.79,115.87z"/>
	<path class="st3" d="M103.67,115.87v-2.86h-2.47v2.09c0,0.12,0.01,0.21,0.04,0.26c0.03,0.06,0.07,0.1,0.12,0.11
		c0.05,0.02,0.11,0.02,0.17,0.02c0.07-0.01,0.14-0.01,0.21-0.01v0.38h-1.9v-0.38l0.13,0.01c0.12,0.01,0.22-0.01,0.3-0.07
		c0.08-0.05,0.12-0.16,0.12-0.32v-4.33c0-0.13-0.01-0.22-0.04-0.27c-0.03-0.06-0.07-0.1-0.12-0.11c-0.05-0.02-0.11-0.02-0.17-0.02
		c-0.07,0.01-0.14,0.01-0.22,0.01v-0.38h1.9v0.38c-0.03,0-0.05,0-0.06-0.01c-0.01,0-0.03-0.01-0.06-0.01
		c-0.13,0-0.23,0.03-0.31,0.09c-0.08,0.06-0.12,0.17-0.12,0.32v1.82h2.47v-2.59h0.81v5.86L103.67,115.87L103.67,115.87z"/>
	<path class="st3" d="M108.93,111.2l-0.83,2.35h1.69L108.93,111.2z M110.65,115.87l-0.72-1.91h-1.96c-0.07,0.18-0.14,0.36-0.22,0.55
		c-0.08,0.18-0.12,0.37-0.12,0.57c0,0.17,0.05,0.28,0.16,0.34c0.11,0.05,0.22,0.08,0.35,0.08v0.38h-1.53v-0.38
		c0.12,0,0.22-0.01,0.29-0.04c0.07-0.03,0.13-0.08,0.16-0.13c0.04-0.05,0.08-0.13,0.1-0.22c0.03-0.09,0.06-0.18,0.1-0.29l1.72-4.89
		h0.29l2.16,5.96L110.65,115.87"/>
	<path class="st3" d="M115.1,113.24h-2.01v-0.71h2.01V113.24z M115.67,112.88c0-0.29-0.02-0.59-0.07-0.9
		c-0.04-0.31-0.12-0.6-0.24-0.85c-0.12-0.26-0.28-0.47-0.48-0.64c-0.21-0.17-0.47-0.25-0.79-0.25c-0.22,0-0.41,0.04-0.57,0.12
		c-0.16,0.08-0.3,0.19-0.42,0.32c-0.11,0.14-0.21,0.3-0.28,0.48c-0.08,0.18-0.13,0.37-0.17,0.58c-0.04,0.2-0.07,0.4-0.09,0.61
		c-0.01,0.21-0.02,0.41-0.02,0.6c0,0.19,0.01,0.39,0.02,0.6c0.02,0.21,0.04,0.41,0.09,0.61s0.1,0.39,0.17,0.58
		c0.07,0.18,0.16,0.34,0.28,0.47c0.12,0.14,0.25,0.24,0.41,0.33c0.16,0.08,0.35,0.12,0.57,0.12c0.34,0,0.61-0.09,0.82-0.26
		c0.21-0.17,0.37-0.4,0.48-0.68c0.11-0.27,0.19-0.57,0.23-0.9C115.65,113.48,115.67,113.17,115.67,112.88 M116.61,112.99
		c0,0.4-0.06,0.79-0.18,1.15c-0.12,0.36-0.29,0.68-0.51,0.96c-0.22,0.28-0.48,0.5-0.8,0.66c-0.31,0.16-0.65,0.24-1.04,0.24
		c-0.39,0-0.73-0.08-1.05-0.25c-0.31-0.16-0.57-0.38-0.79-0.66c-0.22-0.28-0.38-0.6-0.5-0.97c-0.11-0.37-0.17-0.76-0.17-1.18
		c0-0.39,0.06-0.78,0.18-1.15c0.12-0.37,0.29-0.7,0.51-0.99c0.22-0.28,0.48-0.51,0.79-0.68c0.31-0.17,0.65-0.25,1.02-0.25
		c0.39,0,0.74,0.08,1.05,0.25s0.58,0.4,0.8,0.69c0.22,0.28,0.38,0.62,0.49,1C116.56,112.19,116.61,112.58,116.61,112.99"/>
	<path class="st3" d="M120.96,115.87v-2.86h-2.47v2.09c0,0.12,0.02,0.21,0.05,0.26c0.03,0.06,0.07,0.1,0.12,0.11
		c0.05,0.02,0.11,0.02,0.18,0.02c0.07-0.01,0.14-0.01,0.21-0.01v0.38h-1.9v-0.38l0.13,0.01c0.12,0.01,0.22-0.01,0.3-0.07
		c0.08-0.05,0.12-0.16,0.12-0.32v-4.33c0-0.13-0.02-0.22-0.04-0.27c-0.03-0.06-0.07-0.1-0.12-0.11c-0.05-0.02-0.11-0.02-0.17-0.02
		c-0.06,0.01-0.13,0.01-0.21,0.01v-0.38h1.9v0.38c-0.03,0-0.05,0-0.06-0.01c-0.01,0-0.03-0.01-0.06-0.01
		c-0.13,0-0.23,0.03-0.31,0.09c-0.08,0.06-0.12,0.17-0.12,0.32v1.82h2.47v-2.59h0.81v5.86L120.96,115.87L120.96,115.87z"/>
	<path class="st3" d="M126.72,116.01l-3.26-4.92v3.57c0,0.15,0.01,0.27,0.02,0.38c0.01,0.11,0.04,0.2,0.09,0.27
		c0.04,0.07,0.11,0.12,0.2,0.16c0.09,0.04,0.2,0.05,0.35,0.05v0.34h-1.58v-0.34c0.14-0.01,0.25-0.05,0.33-0.11
		c0.08-0.07,0.13-0.14,0.16-0.24c0.03-0.1,0.05-0.21,0.05-0.33c0.01-0.12,0.01-0.24,0.01-0.37v-3.82c-0.06-0.12-0.14-0.2-0.24-0.23
		c-0.09-0.03-0.2-0.05-0.32-0.05V110h1.2l2.92,4.43V110h0.37v6.01L126.72,116.01L126.72,116.01z"/>
	<path class="st3" d="M132.29,115.87h-1.85v-1.42c0.19-0.1,0.34-0.24,0.47-0.39c0.13-0.15,0.23-0.33,0.31-0.52
		c0.08-0.19,0.13-0.39,0.16-0.61c0.04-0.22,0.05-0.43,0.05-0.65c0-0.24-0.02-0.48-0.08-0.72c-0.05-0.24-0.13-0.46-0.25-0.66
		c-0.11-0.2-0.26-0.35-0.44-0.48c-0.18-0.12-0.39-0.19-0.64-0.19c-0.26,0-0.48,0.06-0.67,0.18c-0.19,0.12-0.34,0.28-0.46,0.48
		c-0.12,0.2-0.21,0.42-0.27,0.67c-0.06,0.25-0.09,0.5-0.09,0.76c0,0.21,0.01,0.43,0.04,0.64c0.03,0.21,0.09,0.42,0.17,0.61
		c0.08,0.19,0.18,0.37,0.31,0.52c0.12,0.15,0.28,0.28,0.47,0.37v1.42h-1.85l-0.05-0.76h1.56v-0.37c-0.19-0.08-0.39-0.19-0.57-0.33
		c-0.19-0.13-0.36-0.3-0.5-0.49c-0.15-0.2-0.27-0.42-0.36-0.68c-0.09-0.26-0.14-0.56-0.14-0.9c0-0.36,0.07-0.69,0.2-0.99
		c0.13-0.3,0.3-0.56,0.52-0.78c0.21-0.22,0.46-0.39,0.75-0.51c0.28-0.12,0.59-0.18,0.9-0.18c0.31,0,0.6,0.06,0.89,0.18
		c0.28,0.12,0.53,0.28,0.76,0.5c0.22,0.22,0.39,0.47,0.52,0.77c0.13,0.3,0.2,0.63,0.2,0.98c0,0.28-0.04,0.54-0.13,0.79
		c-0.09,0.24-0.21,0.47-0.35,0.67c-0.15,0.21-0.32,0.4-0.51,0.56c-0.19,0.17-0.39,0.32-0.59,0.46v0.33h1.58L132.29,115.87z"/>
	<path class="st3" d="M137.08,116.01l-3.26-4.92v3.57c0,0.15,0,0.27,0.02,0.38c0.01,0.11,0.04,0.2,0.09,0.27
		c0.04,0.07,0.11,0.12,0.2,0.16c0.09,0.04,0.2,0.05,0.35,0.05v0.34h-1.58v-0.34c0.14-0.01,0.25-0.05,0.32-0.11
		c0.08-0.07,0.13-0.14,0.16-0.24c0.03-0.1,0.05-0.21,0.06-0.33c0-0.12,0.01-0.24,0.01-0.37v-3.82c-0.07-0.12-0.14-0.2-0.24-0.23
		c-0.1-0.03-0.2-0.05-0.32-0.05V110h1.2l2.92,4.43V110h0.37v6.01L137.08,116.01L137.08,116.01z"/>
	<path class="st3" d="M39.14,101.55c0-0.33-0.02-0.64-0.06-0.95c-0.04-0.31-0.12-0.58-0.24-0.82c-0.12-0.24-0.29-0.43-0.51-0.57
		c-0.22-0.14-0.51-0.22-0.87-0.22h-0.48c-0.14,0-0.24,0.02-0.29,0.08c-0.06,0.05-0.09,0.15-0.09,0.32v4.32
		c0,0.12,0.03,0.21,0.09,0.27c0.06,0.05,0.13,0.09,0.22,0.11c0.09,0.02,0.17,0.03,0.27,0.02c0.1-0.01,0.18-0.01,0.26-0.01
		c0.38,0,0.69-0.07,0.91-0.19c0.23-0.13,0.39-0.31,0.51-0.53c0.12-0.23,0.2-0.49,0.23-0.81C39.12,102.25,39.14,101.92,39.14,101.55z
		 M40.06,101.54c0,0.38-0.04,0.75-0.14,1.11c-0.09,0.35-0.23,0.66-0.41,0.94c-0.19,0.27-0.42,0.48-0.7,0.65
		c-0.28,0.16-0.61,0.24-0.99,0.24h-2.02v-5.09c0-0.13-0.02-0.22-0.05-0.28c-0.03-0.05-0.08-0.09-0.13-0.11
		c-0.06-0.01-0.13-0.02-0.2-0.01c-0.08,0.01-0.15,0.01-0.24,0.01V98.6h2.48c0.41,0,0.76,0.07,1.06,0.21
		c0.3,0.14,0.55,0.35,0.75,0.61c0.2,0.26,0.35,0.57,0.45,0.93C40.01,100.71,40.06,101.1,40.06,101.54"/>
	<path class="st3" d="M45.07,104.46h-3.68v-5.09c0-0.13-0.01-0.22-0.05-0.28c-0.03-0.05-0.08-0.09-0.14-0.11
		c-0.06-0.01-0.12-0.02-0.2-0.01c-0.07,0-0.15,0.01-0.23,0.01V98.6h4.13l0.1,2.07h-0.32c-0.04-0.36-0.1-0.65-0.19-0.87
		c-0.09-0.22-0.21-0.4-0.35-0.52c-0.15-0.12-0.34-0.2-0.56-0.25c-0.22-0.04-0.49-0.07-0.78-0.07c-0.08,0-0.16,0-0.23,0
		c-0.08,0-0.14,0.02-0.2,0.04c-0.05,0.03-0.1,0.07-0.13,0.12c-0.04,0.06-0.05,0.14-0.05,0.25v1.86c0.18-0.01,0.34-0.02,0.49-0.03
		c0.15-0.01,0.28-0.03,0.38-0.09c0.11-0.05,0.19-0.13,0.24-0.25c0.06-0.12,0.09-0.28,0.09-0.51h0.31v2.1h-0.31
		c-0.01-0.24-0.04-0.42-0.1-0.54c-0.05-0.11-0.13-0.19-0.24-0.24c-0.1-0.04-0.23-0.07-0.37-0.07c-0.14,0-0.32-0.01-0.5-0.03v2.11
		c0,0.12,0.02,0.21,0.07,0.27c0.04,0.06,0.1,0.1,0.17,0.12c0.07,0.02,0.15,0.03,0.24,0.02c0.09-0.01,0.16-0.01,0.25-0.01
		c0.36,0,0.65-0.02,0.88-0.07c0.23-0.05,0.4-0.15,0.55-0.29c0.14-0.14,0.25-0.33,0.34-0.57c0.08-0.24,0.15-0.55,0.22-0.93h0.29
		L45.07,104.46z"/>
	<path class="st3" d="M50.07,104.07c-0.34,0.35-0.84,0.52-1.52,0.52c-0.29,0-0.56-0.04-0.8-0.11c-0.24-0.08-0.46-0.19-0.63-0.35
		c-0.18-0.16-0.32-0.36-0.41-0.61c-0.1-0.25-0.15-0.55-0.15-0.88v-3.26c0-0.11-0.01-0.2-0.05-0.25c-0.03-0.05-0.08-0.09-0.14-0.11
		c-0.06-0.02-0.12-0.03-0.2-0.03c-0.07,0-0.14,0-0.22,0V98.6h1.93v0.39h-0.18c-0.13,0-0.22,0.03-0.28,0.08
		c-0.06,0.05-0.09,0.16-0.09,0.31v3.26c0,0.52,0.13,0.9,0.38,1.14c0.25,0.24,0.6,0.36,1.06,0.36c0.29,0,0.53-0.04,0.72-0.13
		c0.19-0.09,0.34-0.21,0.44-0.37c0.11-0.16,0.18-0.36,0.22-0.59c0.04-0.23,0.06-0.49,0.06-0.78V98.6h0.35v3.8
		C50.57,103.17,50.4,103.73,50.07,104.07z"/>
	<path class="st3" d="M55.58,100.7c-0.02-0.24-0.05-0.46-0.1-0.67c-0.04-0.22-0.11-0.4-0.2-0.57c-0.09-0.17-0.21-0.3-0.37-0.4
		c-0.15-0.1-0.36-0.15-0.61-0.15c-0.08,0-0.15,0.01-0.19,0.02c-0.04,0.02-0.08,0.04-0.1,0.08c-0.02,0.03-0.03,0.08-0.04,0.13
		c0,0.06-0.01,0.13-0.01,0.21v5.12h-0.8v-5.12c0-0.1-0.01-0.17-0.02-0.24c-0.02-0.06-0.04-0.11-0.07-0.13
		c-0.03-0.03-0.08-0.05-0.13-0.06c-0.05-0.01-0.13-0.01-0.21-0.01c-0.24,0-0.43,0.05-0.57,0.16c-0.15,0.11-0.26,0.24-0.34,0.41
		c-0.08,0.17-0.14,0.36-0.18,0.58s-0.07,0.43-0.08,0.64h-0.28l0.11-2.1h4.38l0.1,2.1L55.58,100.7L55.58,100.7z"/>
	<path class="st3" d="M60.31,102.84c0,0.29-0.05,0.54-0.14,0.76c-0.09,0.22-0.22,0.4-0.38,0.55c-0.16,0.15-0.35,0.26-0.57,0.33
		s-0.45,0.11-0.69,0.11c-0.32,0-0.6-0.07-0.86-0.19c-0.27-0.13-0.49-0.3-0.68-0.52c-0.19-0.22-0.34-0.47-0.44-0.75
		c-0.11-0.29-0.16-0.59-0.16-0.92l0.35-0.01c0.03,0.27,0.09,0.53,0.19,0.77c0.1,0.24,0.22,0.46,0.37,0.64
		c0.15,0.19,0.33,0.34,0.54,0.44c0.21,0.11,0.45,0.16,0.7,0.16c0.16,0,0.31-0.02,0.45-0.07c0.14-0.05,0.27-0.12,0.38-0.22
		c0.11-0.09,0.2-0.21,0.26-0.36c0.07-0.14,0.1-0.31,0.1-0.49c0-0.23-0.05-0.41-0.14-0.56c-0.09-0.14-0.22-0.26-0.37-0.35
		c-0.15-0.09-0.33-0.16-0.52-0.22c-0.2-0.06-0.39-0.12-0.6-0.17c-0.2-0.05-0.4-0.12-0.59-0.19c-0.2-0.08-0.37-0.17-0.52-0.29
		c-0.15-0.12-0.28-0.28-0.37-0.47c-0.09-0.19-0.14-0.43-0.14-0.72c0-0.24,0.04-0.46,0.11-0.66c0.08-0.21,0.19-0.38,0.32-0.53
		c0.14-0.15,0.3-0.26,0.48-0.35c0.19-0.09,0.38-0.13,0.59-0.13c0.27,0,0.52,0.05,0.76,0.14c0.25,0.09,0.46,0.24,0.65,0.44l0.28-0.5
		h0.27l0.08,2.13h-0.28c-0.05-0.23-0.12-0.46-0.22-0.68c-0.1-0.22-0.22-0.41-0.36-0.58c-0.14-0.17-0.31-0.31-0.5-0.41
		c-0.19-0.1-0.4-0.15-0.64-0.15c-0.14,0-0.27,0.02-0.39,0.07c-0.12,0.04-0.23,0.11-0.32,0.19c-0.09,0.09-0.16,0.19-0.21,0.32
		c-0.05,0.13-0.08,0.27-0.08,0.43c0,0.2,0.04,0.36,0.14,0.49c0.09,0.12,0.22,0.23,0.37,0.31c0.15,0.08,0.33,0.14,0.52,0.19
		c0.2,0.05,0.4,0.11,0.6,0.16c0.21,0.06,0.4,0.13,0.6,0.2c0.2,0.08,0.37,0.19,0.52,0.33c0.15,0.14,0.28,0.31,0.37,0.52
		C60.26,102.25,60.31,102.52,60.31,102.84z"/>
	<path class="st3" d="M65.48,102.66c-0.01,0.07-0.02,0.13-0.04,0.2c-0.06,0.27-0.15,0.51-0.27,0.72c-0.13,0.22-0.28,0.4-0.46,0.55
		c-0.18,0.15-0.38,0.26-0.59,0.34c-0.22,0.08-0.45,0.12-0.7,0.12c-0.36,0-0.7-0.09-0.99-0.27c-0.3-0.17-0.55-0.41-0.76-0.7
		c-0.21-0.28-0.37-0.61-0.48-0.98c-0.12-0.36-0.17-0.73-0.17-1.12c0-0.38,0.05-0.75,0.16-1.12c0.11-0.37,0.27-0.7,0.48-0.99
		c0.21-0.29,0.45-0.52,0.75-0.7c0.29-0.18,0.62-0.27,1-0.27c0.11,0,0.22,0.01,0.34,0.04c0.12,0.02,0.24,0.06,0.36,0.11
		c0.12,0.05,0.23,0.11,0.34,0.17c0.11,0.07,0.2,0.14,0.28,0.22l0.28-0.5h0.28l0.09,2.36l-0.29,0.02c-0.04-0.24-0.1-0.48-0.18-0.72
		c-0.08-0.24-0.18-0.46-0.31-0.66c-0.13-0.2-0.28-0.36-0.47-0.49c-0.19-0.12-0.4-0.19-0.65-0.19c-0.22,0-0.41,0.04-0.57,0.13
		c-0.16,0.09-0.29,0.2-0.4,0.34c-0.11,0.15-0.2,0.31-0.27,0.5c-0.07,0.19-0.12,0.38-0.16,0.59c-0.03,0.21-0.06,0.42-0.08,0.63
		c-0.01,0.21-0.02,0.41-0.02,0.6c0,0.27,0.02,0.57,0.06,0.87c0.04,0.31,0.11,0.58,0.22,0.84c0.11,0.26,0.26,0.47,0.46,0.63
		c0.19,0.17,0.44,0.26,0.75,0.26c0.25,0,0.48-0.04,0.67-0.13c0.19-0.09,0.35-0.22,0.49-0.38c0.14-0.16,0.25-0.35,0.34-0.58
		c0.09-0.22,0.16-0.46,0.22-0.71l0.34,0.05C65.5,102.53,65.49,102.6,65.48,102.66z"/>
	<path class="st3" d="M70.03,104.46v-2.86h-2.47v2.09c0,0.12,0.02,0.21,0.04,0.26c0.03,0.05,0.07,0.09,0.12,0.11
		c0.05,0.02,0.11,0.02,0.17,0.02c0.07-0.01,0.13-0.01,0.21-0.01v0.38h-1.9v-0.38l0.13,0.01c0.12,0.01,0.22-0.01,0.31-0.07
		c0.08-0.06,0.12-0.16,0.12-0.32v-4.33c0-0.13-0.01-0.22-0.04-0.27c-0.03-0.05-0.07-0.09-0.12-0.11c-0.05-0.02-0.11-0.02-0.18-0.02
		c-0.06,0.01-0.14,0.01-0.22,0.01V98.6h1.9v0.38c-0.03,0-0.05,0-0.06-0.01c-0.01-0.01-0.03-0.01-0.06-0.01
		c-0.13,0-0.23,0.03-0.31,0.08c-0.08,0.06-0.12,0.16-0.12,0.32v1.83h2.47V98.6h0.8v5.86L70.03,104.46L70.03,104.46z"/>
	<path class="st3" d="M76.06,104.46h-3.68v-5.09c0-0.13-0.01-0.22-0.05-0.28c-0.03-0.05-0.08-0.09-0.14-0.11
		c-0.06-0.01-0.13-0.02-0.2-0.01c-0.07,0-0.15,0.01-0.23,0.01V98.6h4.13l0.1,2.07h-0.32c-0.04-0.36-0.1-0.65-0.2-0.87
		c-0.09-0.22-0.21-0.4-0.35-0.52c-0.15-0.12-0.34-0.2-0.56-0.25c-0.22-0.04-0.48-0.07-0.78-0.07c-0.08,0-0.15,0-0.23,0
		c-0.08,0-0.14,0.02-0.2,0.04c-0.05,0.03-0.1,0.07-0.13,0.12c-0.03,0.06-0.05,0.14-0.05,0.25v1.86c0.18-0.01,0.34-0.02,0.49-0.03
		c0.14-0.01,0.27-0.03,0.37-0.09c0.11-0.05,0.19-0.13,0.25-0.25c0.06-0.12,0.09-0.28,0.09-0.51h0.31v2.1h-0.31
		c0-0.24-0.03-0.42-0.09-0.54c-0.05-0.11-0.13-0.19-0.23-0.24c-0.11-0.04-0.23-0.07-0.37-0.07c-0.14,0-0.31-0.01-0.5-0.03v2.11
		c0,0.12,0.02,0.21,0.06,0.27c0.04,0.06,0.1,0.1,0.17,0.12c0.07,0.02,0.15,0.03,0.23,0.02c0.09-0.01,0.17-0.01,0.25-0.01
		c0.37,0,0.65-0.02,0.88-0.07c0.23-0.05,0.41-0.15,0.55-0.29c0.14-0.14,0.25-0.33,0.33-0.57c0.08-0.24,0.16-0.55,0.22-0.93h0.29
		L76.06,104.46z"/>
	<path class="st3" d="M83,102.84c0,0.29-0.05,0.54-0.14,0.76c-0.09,0.22-0.22,0.4-0.38,0.55c-0.15,0.15-0.35,0.26-0.56,0.33
		c-0.21,0.08-0.44,0.11-0.69,0.11c-0.31,0-0.6-0.07-0.86-0.19c-0.26-0.13-0.49-0.3-0.68-0.52c-0.19-0.22-0.34-0.47-0.45-0.75
		c-0.1-0.29-0.16-0.59-0.16-0.92l0.35-0.01c0.03,0.27,0.09,0.53,0.19,0.77c0.1,0.24,0.22,0.46,0.38,0.64
		c0.15,0.19,0.34,0.34,0.54,0.44c0.21,0.11,0.44,0.16,0.7,0.16c0.16,0,0.31-0.02,0.45-0.07c0.14-0.05,0.27-0.12,0.38-0.22
		c0.11-0.09,0.2-0.21,0.27-0.36c0.07-0.14,0.1-0.31,0.1-0.49c0-0.23-0.05-0.41-0.14-0.56s-0.22-0.26-0.37-0.35
		c-0.15-0.09-0.33-0.16-0.52-0.22c-0.2-0.06-0.4-0.12-0.6-0.17c-0.2-0.05-0.4-0.12-0.59-0.19c-0.2-0.08-0.37-0.17-0.53-0.29
		c-0.15-0.12-0.27-0.28-0.37-0.47c-0.09-0.19-0.14-0.43-0.14-0.72c0-0.24,0.04-0.46,0.12-0.66c0.08-0.21,0.19-0.38,0.32-0.53
		c0.14-0.15,0.29-0.26,0.48-0.35c0.19-0.09,0.38-0.13,0.59-0.13c0.26,0,0.51,0.05,0.76,0.14c0.25,0.09,0.46,0.24,0.65,0.44l0.28-0.5
		h0.27l0.08,2.13h-0.28c-0.05-0.23-0.13-0.46-0.22-0.68c-0.1-0.22-0.22-0.41-0.36-0.58c-0.14-0.17-0.31-0.31-0.5-0.41
		c-0.19-0.1-0.4-0.15-0.64-0.15c-0.14,0-0.27,0.02-0.39,0.07c-0.12,0.04-0.23,0.11-0.32,0.19c-0.09,0.09-0.16,0.19-0.21,0.32
		c-0.05,0.13-0.08,0.27-0.08,0.43c0,0.2,0.04,0.36,0.14,0.49c0.09,0.12,0.22,0.23,0.37,0.31c0.15,0.08,0.33,0.14,0.52,0.19
		c0.2,0.05,0.39,0.11,0.6,0.16c0.21,0.06,0.4,0.13,0.6,0.2c0.19,0.08,0.37,0.19,0.52,0.33c0.15,0.14,0.27,0.31,0.37,0.52
		C82.95,102.25,83,102.52,83,102.84z"/>
	<path class="st3" d="M88.17,102.66c-0.01,0.07-0.02,0.13-0.03,0.2c-0.06,0.27-0.15,0.51-0.27,0.72c-0.13,0.22-0.28,0.4-0.46,0.55
		c-0.17,0.15-0.37,0.26-0.59,0.34c-0.22,0.08-0.45,0.12-0.7,0.12c-0.37,0-0.7-0.09-1-0.27c-0.3-0.17-0.55-0.41-0.76-0.7
		c-0.21-0.28-0.37-0.61-0.48-0.98c-0.12-0.36-0.17-0.73-0.17-1.12c0-0.38,0.05-0.75,0.16-1.12c0.11-0.37,0.27-0.7,0.47-0.99
		s0.46-0.52,0.74-0.7c0.3-0.18,0.63-0.27,1-0.27c0.11,0,0.22,0.01,0.35,0.04c0.12,0.02,0.24,0.06,0.36,0.11
		c0.12,0.05,0.23,0.11,0.34,0.17c0.1,0.07,0.2,0.14,0.28,0.22l0.28-0.5h0.28l0.1,2.36l-0.29,0.02c-0.04-0.24-0.1-0.48-0.17-0.72
		c-0.08-0.24-0.18-0.46-0.31-0.66c-0.13-0.2-0.29-0.36-0.47-0.49c-0.19-0.12-0.4-0.19-0.65-0.19c-0.22,0-0.41,0.04-0.57,0.13
		c-0.16,0.09-0.29,0.2-0.4,0.34c-0.11,0.15-0.2,0.31-0.27,0.5c-0.07,0.19-0.13,0.38-0.16,0.59c-0.03,0.21-0.06,0.42-0.08,0.63
		c-0.01,0.21-0.02,0.41-0.02,0.6c0,0.27,0.02,0.57,0.06,0.87c0.04,0.31,0.11,0.58,0.22,0.84c0.11,0.26,0.26,0.47,0.46,0.63
		c0.19,0.17,0.44,0.26,0.75,0.26c0.25,0,0.48-0.04,0.67-0.13c0.19-0.09,0.35-0.22,0.49-0.38c0.14-0.16,0.25-0.35,0.34-0.58
		c0.09-0.22,0.16-0.46,0.21-0.71l0.35,0.05C88.19,102.53,88.18,102.6,88.17,102.66z"/>
	<path class="st3" d="M92.72,104.46v-2.86h-2.47v2.09c0,0.12,0.01,0.21,0.04,0.26c0.03,0.05,0.07,0.09,0.12,0.11
		c0.05,0.02,0.11,0.02,0.18,0.02c0.06-0.01,0.13-0.01,0.21-0.01v0.38h-1.9v-0.38l0.13,0.01c0.12,0.01,0.22-0.01,0.3-0.07
		c0.07-0.06,0.11-0.16,0.11-0.32v-4.33c0-0.13-0.01-0.22-0.04-0.27c-0.03-0.05-0.07-0.09-0.12-0.11c-0.05-0.02-0.1-0.02-0.17-0.02
		c-0.06,0.01-0.14,0.01-0.21,0.01V98.6h1.9v0.38c-0.03,0-0.05,0-0.06-0.01c-0.01-0.01-0.03-0.01-0.06-0.01
		c-0.13,0-0.23,0.03-0.32,0.08c-0.08,0.06-0.12,0.16-0.12,0.32v1.83h2.47V98.6h0.81v5.86L92.72,104.46L92.72,104.46z"/>
	<path class="st3" d="M98.55,104.07c-0.33,0.35-0.84,0.52-1.52,0.52c-0.29,0-0.56-0.04-0.8-0.11c-0.25-0.08-0.46-0.19-0.63-0.35
		c-0.18-0.16-0.32-0.36-0.41-0.61c-0.1-0.25-0.15-0.55-0.15-0.88v-3.26c0-0.11-0.02-0.2-0.05-0.25c-0.03-0.05-0.08-0.09-0.14-0.11
		c-0.06-0.02-0.12-0.03-0.2-0.03c-0.07,0-0.14,0-0.22,0V98.6h1.93v0.39h-0.19c-0.12,0-0.22,0.03-0.27,0.08
		c-0.06,0.05-0.09,0.16-0.09,0.31v3.26c0,0.52,0.12,0.9,0.38,1.14c0.25,0.24,0.61,0.36,1.06,0.36c0.29,0,0.53-0.04,0.72-0.13
		c0.19-0.09,0.33-0.21,0.44-0.37c0.11-0.16,0.19-0.36,0.22-0.59c0.04-0.23,0.07-0.49,0.07-0.78V98.6h0.35v3.8
		C99.06,103.17,98.89,103.73,98.55,104.07z"/>
	<path class="st3" d="M103.96,104.46h-3.51v-5.09c0-0.11-0.01-0.19-0.04-0.24c-0.03-0.05-0.07-0.09-0.12-0.11
		c-0.05-0.02-0.11-0.03-0.17-0.04c-0.07,0-0.14,0-0.21,0V98.6h1.9v0.38c-0.08,0-0.15,0-0.22,0c-0.07,0-0.13,0.01-0.17,0.03
		c-0.05,0.02-0.09,0.06-0.12,0.11c-0.03,0.05-0.04,0.14-0.04,0.25v4.32c0,0.11,0.02,0.2,0.05,0.25c0.03,0.06,0.08,0.1,0.13,0.13
		c0.06,0.02,0.12,0.03,0.2,0.03c0.08,0,0.15,0,0.23,0c0.34,0,0.62-0.03,0.85-0.09c0.23-0.06,0.41-0.16,0.56-0.31
		c0.14-0.14,0.25-0.34,0.33-0.58c0.08-0.24,0.14-0.54,0.19-0.92h0.28L103.96,104.46z"/>
	<path class="st3" d="M108.97,104.46h-3.68v-5.09c0-0.13-0.02-0.22-0.05-0.28c-0.04-0.05-0.08-0.09-0.14-0.11
		c-0.06-0.01-0.13-0.02-0.2-0.01c-0.08,0-0.15,0.01-0.24,0.01V98.6h4.13l0.1,2.07h-0.32c-0.04-0.36-0.1-0.65-0.19-0.87
		c-0.09-0.22-0.21-0.4-0.35-0.52c-0.15-0.12-0.34-0.2-0.56-0.25c-0.22-0.04-0.48-0.07-0.79-0.07c-0.08,0-0.15,0-0.23,0
		s-0.14,0.02-0.2,0.04c-0.05,0.03-0.1,0.07-0.13,0.12c-0.04,0.06-0.05,0.14-0.05,0.25v1.86c0.19-0.01,0.35-0.02,0.49-0.03
		c0.15-0.01,0.27-0.03,0.38-0.09c0.11-0.05,0.19-0.13,0.25-0.25c0.05-0.12,0.08-0.28,0.08-0.51h0.31v2.1h-0.31
		c0-0.24-0.03-0.42-0.09-0.54c-0.06-0.11-0.14-0.19-0.24-0.24c-0.1-0.04-0.22-0.07-0.37-0.07c-0.14,0-0.32-0.01-0.5-0.03v2.11
		c0,0.12,0.02,0.21,0.07,0.27c0.04,0.06,0.1,0.1,0.17,0.12c0.07,0.02,0.15,0.03,0.23,0.02c0.08-0.01,0.17-0.01,0.25-0.01
		c0.36,0,0.65-0.02,0.88-0.07c0.22-0.05,0.41-0.15,0.55-0.29s0.25-0.33,0.33-0.57c0.08-0.24,0.15-0.55,0.22-0.93h0.28L108.97,104.46
		z"/>
	<path class="st3" d="M113.88,99.79l-0.83,2.35h1.69L113.88,99.79z M115.6,104.46l-0.72-1.91h-1.96c-0.07,0.18-0.14,0.36-0.22,0.54
		c-0.08,0.18-0.12,0.37-0.12,0.57c0,0.17,0.05,0.28,0.16,0.33c0.11,0.05,0.22,0.08,0.35,0.08v0.38h-1.53v-0.38
		c0.12,0,0.22-0.01,0.29-0.04s0.12-0.07,0.16-0.13c0.04-0.06,0.08-0.13,0.1-0.21c0.02-0.09,0.06-0.19,0.1-0.29l1.72-4.89h0.29
		l2.16,5.95H115.6"/>
	<path class="st3" d="M120.94,100.7c-0.03-0.24-0.06-0.46-0.1-0.67s-0.11-0.4-0.2-0.57c-0.09-0.17-0.21-0.3-0.37-0.4
		c-0.15-0.1-0.36-0.15-0.61-0.15c-0.08,0-0.15,0.01-0.2,0.02c-0.04,0.02-0.08,0.04-0.1,0.08c-0.02,0.03-0.04,0.08-0.04,0.13
		c-0.01,0.06-0.01,0.13-0.01,0.21v5.12h-0.8v-5.12c0-0.1-0.01-0.17-0.02-0.24c-0.01-0.06-0.04-0.11-0.07-0.13
		c-0.03-0.03-0.08-0.05-0.13-0.06c-0.06-0.01-0.13-0.01-0.22-0.01c-0.24,0-0.43,0.05-0.58,0.16c-0.14,0.11-0.26,0.24-0.34,0.41
		s-0.14,0.36-0.18,0.58c-0.04,0.22-0.07,0.43-0.09,0.64h-0.28l0.11-2.1h4.38l0.11,2.1L120.94,100.7L120.94,100.7z"/>
	<path class="st3" d="M125.64,104.46v-2.86h-2.47v2.09c0,0.12,0.01,0.21,0.04,0.26c0.03,0.05,0.07,0.09,0.12,0.11
		c0.05,0.02,0.11,0.02,0.17,0.02c0.07-0.01,0.13-0.01,0.21-0.01v0.38h-1.9v-0.38l0.13,0.01c0.12,0.01,0.22-0.01,0.3-0.07
		c0.08-0.06,0.12-0.16,0.12-0.32v-4.33c0-0.13-0.02-0.22-0.04-0.27c-0.03-0.05-0.07-0.09-0.12-0.11c-0.05-0.02-0.1-0.02-0.17-0.02
		c-0.06,0.01-0.13,0.01-0.22,0.01V98.6h1.9v0.38c-0.03,0-0.05,0-0.06-0.01c-0.01-0.01-0.03-0.01-0.06-0.01
		c-0.13,0-0.23,0.03-0.31,0.08c-0.08,0.06-0.12,0.16-0.12,0.32v1.83h2.47V98.6h0.81v5.86L125.64,104.46L125.64,104.46z"/>
	<path class="st3" d="M131.68,104.46h-3.68v-5.09c0-0.13-0.02-0.22-0.05-0.28c-0.04-0.05-0.08-0.09-0.14-0.11
		c-0.06-0.01-0.13-0.02-0.2-0.01c-0.08,0-0.16,0.01-0.24,0.01V98.6h4.13l0.1,2.07h-0.32c-0.04-0.36-0.1-0.65-0.19-0.87
		c-0.09-0.22-0.21-0.4-0.36-0.52c-0.15-0.12-0.33-0.2-0.56-0.25c-0.22-0.04-0.48-0.07-0.78-0.07c-0.08,0-0.15,0-0.23,0
		s-0.14,0.02-0.2,0.04c-0.05,0.03-0.1,0.07-0.13,0.12c-0.03,0.06-0.05,0.14-0.05,0.25v1.86c0.19-0.01,0.35-0.02,0.49-0.03
		c0.14-0.01,0.27-0.03,0.38-0.09c0.1-0.05,0.19-0.13,0.25-0.25c0.05-0.12,0.09-0.28,0.09-0.51h0.31v2.1H130
		c0-0.24-0.03-0.42-0.09-0.54c-0.06-0.11-0.14-0.19-0.24-0.24c-0.1-0.04-0.23-0.07-0.37-0.07c-0.15,0-0.31-0.01-0.51-0.03v2.11
		c0,0.12,0.02,0.21,0.07,0.27c0.04,0.06,0.1,0.1,0.17,0.12c0.07,0.02,0.15,0.03,0.24,0.02c0.09-0.01,0.17-0.01,0.25-0.01
		c0.36,0,0.65-0.02,0.88-0.07c0.23-0.05,0.41-0.15,0.55-0.29s0.25-0.33,0.33-0.57c0.08-0.24,0.16-0.55,0.23-0.93h0.28L131.68,104.46
		z"/>
	<path class="st3" d="M136.84,104.6l-3.26-4.92v3.57c0,0.15,0.01,0.27,0.02,0.38c0.01,0.11,0.04,0.2,0.09,0.27
		c0.04,0.07,0.11,0.12,0.2,0.16c0.08,0.03,0.2,0.05,0.34,0.05v0.34h-1.58v-0.34c0.14-0.01,0.25-0.05,0.33-0.11
		c0.07-0.07,0.13-0.14,0.16-0.24c0.03-0.1,0.05-0.21,0.06-0.33c0.01-0.12,0.01-0.24,0.01-0.37v-3.83c-0.06-0.13-0.14-0.21-0.24-0.24
		c-0.1-0.03-0.2-0.04-0.32-0.04V98.6h1.2l2.92,4.43V98.6h0.37v6L136.84,104.6L136.84,104.6z"/>
	<path class="st3" d="M103.13,65.97c0-0.97-0.06-1.91-0.19-2.82c-0.13-0.92-0.38-1.73-0.75-2.44c-0.37-0.71-0.9-1.28-1.58-1.7
		c-0.69-0.43-1.58-0.64-2.69-0.64h-1.5c-0.43,0-0.73,0.07-0.91,0.22c-0.18,0.14-0.27,0.46-0.27,0.94v12.8
		c0,0.37,0.09,0.64,0.27,0.81c0.19,0.17,0.4,0.28,0.67,0.34c0.26,0.06,0.55,0.08,0.85,0.06c0.31-0.02,0.58-0.03,0.82-0.03
		c1.18,0,2.13-0.19,2.82-0.57c0.7-0.38,1.23-0.9,1.59-1.58c0.36-0.68,0.6-1.47,0.71-2.39C103.08,68.05,103.13,67.05,103.13,65.97z
		 M106,65.93c0,1.14-0.14,2.24-0.42,3.28c-0.28,1.04-0.71,1.97-1.29,2.78c-0.58,0.81-1.3,1.44-2.17,1.92
		c-0.87,0.48-1.9,0.71-3.08,0.71h-6.29V59.53c0-0.38-0.05-0.66-0.16-0.83c-0.11-0.17-0.25-0.28-0.42-0.33
		c-0.18-0.05-0.38-0.06-0.62-0.04c-0.23,0.02-0.48,0.04-0.74,0.04v-1.16h7.7c1.27,0,2.38,0.22,3.31,0.64
		c0.93,0.43,1.71,1.03,2.33,1.8c0.62,0.77,1.09,1.69,1.39,2.75C105.85,63.47,106,64.63,106,65.93"/>
	<path class="st5" d="M103.13,65.97c0-0.97-0.06-1.91-0.19-2.82c-0.13-0.92-0.38-1.73-0.75-2.44c-0.37-0.71-0.9-1.28-1.58-1.7
		c-0.69-0.43-1.58-0.64-2.69-0.64h-1.5c-0.43,0-0.73,0.07-0.91,0.22c-0.18,0.14-0.27,0.46-0.27,0.94v12.8
		c0,0.37,0.09,0.64,0.27,0.81c0.19,0.17,0.4,0.28,0.67,0.34c0.26,0.06,0.55,0.08,0.85,0.06c0.31-0.02,0.58-0.03,0.82-0.03
		c1.18,0,2.13-0.19,2.82-0.57c0.7-0.38,1.23-0.9,1.59-1.58c0.36-0.68,0.6-1.47,0.71-2.39C103.08,68.05,103.13,67.05,103.13,65.97z
		 M106,65.93c0,1.14-0.14,2.24-0.42,3.28c-0.28,1.04-0.71,1.97-1.29,2.78c-0.58,0.81-1.3,1.44-2.17,1.92
		c-0.87,0.48-1.9,0.71-3.08,0.71h-6.29V59.53c0-0.38-0.05-0.66-0.16-0.83c-0.11-0.17-0.25-0.28-0.42-0.33
		c-0.18-0.05-0.38-0.06-0.62-0.04c-0.23,0.02-0.48,0.04-0.74,0.04v-1.16h7.7c1.27,0,2.38,0.22,3.31,0.64
		c0.93,0.43,1.71,1.03,2.33,1.8c0.62,0.77,1.09,1.69,1.39,2.75C105.85,63.47,106,64.63,106,65.93"/>
	<path class="st3" d="M118.85,69.79c0,0.85-0.14,1.6-0.43,2.26c-0.28,0.65-0.68,1.19-1.18,1.63c-0.5,0.44-1.09,0.76-1.75,0.99
		c-0.67,0.23-1.38,0.34-2.14,0.34c-0.97,0-1.87-0.19-2.68-0.57c-0.82-0.38-1.53-0.89-2.12-1.53c-0.59-0.64-1.06-1.39-1.38-2.24
		c-0.33-0.85-0.49-1.75-0.49-2.7l1.07-0.02c0.09,0.81,0.28,1.57,0.58,2.3c0.3,0.72,0.69,1.36,1.16,1.92
		c0.48,0.56,1.04,0.99,1.7,1.32c0.65,0.32,1.38,0.48,2.19,0.48c0.49,0,0.95-0.07,1.4-0.22c0.45-0.15,0.84-0.36,1.19-0.64
		c0.34-0.28,0.62-0.64,0.83-1.07c0.22-0.43,0.32-0.91,0.32-1.46c0-0.68-0.14-1.22-0.43-1.65s-0.68-0.77-1.16-1.04
		c-0.47-0.26-1.02-0.49-1.62-0.66s-1.23-0.34-1.86-0.51c-0.63-0.16-1.25-0.35-1.86-0.57c-0.61-0.22-1.15-0.51-1.63-0.87
		c-0.48-0.36-0.86-0.83-1.15-1.39c-0.29-0.57-0.44-1.27-0.44-2.13c0-0.71,0.12-1.36,0.37-1.97c0.24-0.6,0.58-1.13,1-1.57
		c0.43-0.44,0.93-0.79,1.5-1.04c0.58-0.25,1.19-0.37,1.84-0.37c0.82,0,1.61,0.14,2.37,0.42c0.76,0.28,1.43,0.71,2.03,1.29l0.87-1.47
		h0.84l0.25,6.3h-0.89c-0.15-0.69-0.38-1.36-0.68-2.02c-0.31-0.65-0.68-1.23-1.12-1.73c-0.44-0.5-0.96-0.9-1.55-1.21
		c-0.59-0.31-1.26-0.46-2-0.46c-0.43,0-0.83,0.07-1.21,0.2c-0.38,0.13-0.71,0.32-0.99,0.57c-0.28,0.25-0.5,0.56-0.66,0.93
		c-0.16,0.37-0.24,0.8-0.24,1.28c0,0.6,0.14,1.08,0.43,1.45c0.29,0.37,0.67,0.67,1.15,0.91c0.48,0.23,1.02,0.43,1.63,0.58
		c0.61,0.15,1.23,0.31,1.86,0.48c0.64,0.17,1.26,0.37,1.87,0.6c0.6,0.24,1.14,0.56,1.63,0.97c0.48,0.41,0.86,0.93,1.15,1.55
		C118.7,68.05,118.85,68.84,118.85,69.79z"/>
	<path class="st5" d="M118.85,69.79c0,0.85-0.14,1.6-0.43,2.26c-0.28,0.65-0.68,1.19-1.18,1.63c-0.5,0.44-1.09,0.76-1.75,0.99
		c-0.67,0.23-1.38,0.34-2.14,0.34c-0.97,0-1.87-0.19-2.68-0.57c-0.82-0.38-1.53-0.89-2.12-1.53c-0.59-0.64-1.06-1.39-1.38-2.24
		c-0.33-0.85-0.49-1.75-0.49-2.7l1.07-0.02c0.09,0.81,0.28,1.57,0.58,2.3c0.3,0.72,0.69,1.36,1.16,1.92
		c0.48,0.56,1.04,0.99,1.7,1.32c0.65,0.32,1.38,0.48,2.19,0.48c0.49,0,0.95-0.07,1.4-0.22c0.45-0.15,0.84-0.36,1.19-0.64
		c0.34-0.28,0.62-0.64,0.83-1.07c0.22-0.43,0.32-0.91,0.32-1.46c0-0.68-0.14-1.22-0.43-1.65s-0.68-0.77-1.16-1.04
		c-0.47-0.26-1.02-0.49-1.62-0.66s-1.23-0.34-1.86-0.51c-0.63-0.16-1.25-0.35-1.86-0.57c-0.61-0.22-1.15-0.51-1.63-0.87
		c-0.48-0.36-0.86-0.83-1.15-1.39c-0.29-0.57-0.44-1.27-0.44-2.13c0-0.71,0.12-1.36,0.37-1.97c0.24-0.6,0.58-1.13,1-1.57
		c0.43-0.44,0.93-0.79,1.5-1.04c0.58-0.25,1.19-0.37,1.84-0.37c0.82,0,1.61,0.14,2.37,0.42c0.76,0.28,1.43,0.71,2.03,1.29l0.87-1.47
		h0.84l0.25,6.3h-0.89c-0.15-0.69-0.38-1.36-0.68-2.02c-0.31-0.65-0.68-1.23-1.12-1.73c-0.44-0.5-0.96-0.9-1.55-1.21
		c-0.59-0.31-1.26-0.46-2-0.46c-0.43,0-0.83,0.07-1.21,0.2c-0.38,0.13-0.71,0.32-0.99,0.57c-0.28,0.25-0.5,0.56-0.66,0.93
		c-0.16,0.37-0.24,0.8-0.24,1.28c0,0.6,0.14,1.08,0.43,1.45c0.29,0.37,0.67,0.67,1.15,0.91c0.48,0.23,1.02,0.43,1.63,0.58
		c0.61,0.15,1.23,0.31,1.86,0.48c0.64,0.17,1.26,0.37,1.87,0.6c0.6,0.24,1.14,0.56,1.63,0.97c0.48,0.41,0.86,0.93,1.15,1.55
		C118.7,68.05,118.85,68.84,118.85,69.79z"/>
	<path class="st3" d="M126.29,60.76l-2.57,6.98h5.26L126.29,60.76z M131.65,74.62l-2.23-5.67h-6.1c-0.21,0.53-0.44,1.07-0.68,1.62
		c-0.24,0.55-0.37,1.11-0.37,1.69c0,0.5,0.16,0.83,0.49,0.99c0.33,0.16,0.69,0.24,1.08,0.24v1.13h-4.74v-1.13
		c0.38,0,0.68-0.04,0.9-0.13c0.22-0.09,0.4-0.22,0.53-0.38c0.13-0.17,0.23-0.38,0.32-0.64c0.08-0.26,0.19-0.54,0.31-0.87l5.35-14.51
		h0.89l6.72,17.67L131.65,74.62"/>
	<path class="st5" d="M126.29,60.76l-2.57,6.98h5.26L126.29,60.76z M131.65,74.62l-2.23-5.67h-6.1c-0.21,0.53-0.44,1.07-0.68,1.62
		c-0.24,0.55-0.37,1.11-0.37,1.69c0,0.5,0.16,0.83,0.49,0.99c0.33,0.16,0.69,0.24,1.08,0.24v1.13h-4.74v-1.13
		c0.38,0,0.68-0.04,0.9-0.13c0.22-0.09,0.4-0.22,0.53-0.38c0.13-0.17,0.23-0.38,0.32-0.64c0.08-0.26,0.19-0.54,0.31-0.87l5.35-14.51
		h0.89l6.72,17.67L131.65,74.62"/>
	<path class="st3" d="M104.28,82.7c-0.15-1.14-0.37-2.05-0.66-2.71c-0.29-0.67-0.68-1.18-1.17-1.54c-0.49-0.35-1.1-0.58-1.82-0.68
		c-0.72-0.1-1.58-0.14-2.58-0.14c-0.23,0-0.43,0.01-0.61,0.03c-0.19,0.03-0.34,0.08-0.48,0.16c-0.13,0.08-0.24,0.21-0.32,0.38
		c-0.08,0.17-0.11,0.39-0.11,0.66v15.09h-2.48V78.86c0-0.39-0.08-0.66-0.24-0.83c-0.16-0.17-0.36-0.27-0.59-0.33
		c-0.24-0.05-0.5-0.07-0.78-0.05c-0.28,0.01-0.54,0.02-0.78,0.02v-1.13h13.3l0.32,6.16L104.28,82.7L104.28,82.7z"/>
	<path class="st5" d="M104.28,82.7c-0.15-1.14-0.37-2.05-0.66-2.71c-0.29-0.67-0.68-1.18-1.17-1.54c-0.49-0.35-1.1-0.58-1.82-0.68
		c-0.72-0.1-1.58-0.14-2.58-0.14c-0.23,0-0.43,0.01-0.61,0.03c-0.19,0.03-0.34,0.08-0.48,0.16c-0.13,0.08-0.24,0.21-0.32,0.38
		c-0.08,0.17-0.11,0.39-0.11,0.66v15.09h-2.48V78.86c0-0.39-0.08-0.66-0.24-0.83c-0.16-0.17-0.36-0.27-0.59-0.33
		c-0.24-0.05-0.5-0.07-0.78-0.05c-0.28,0.01-0.54,0.02-0.78,0.02v-1.13h13.3l0.32,6.16L104.28,82.7L104.28,82.7z"/>
	<path class="st3" d="M120.21,93.95h-13.08v-1.16l5.79-7.46l-5.69-7.95v-0.84h12.69l0.39,6.16h-1.03c-0.1-0.74-0.25-1.42-0.42-2.04
		c-0.17-0.62-0.43-1.15-0.76-1.59c-0.34-0.44-0.76-0.78-1.29-1.02c-0.52-0.24-1.19-0.36-1.99-0.36h-4.42l4.81,6.66l-5.81,7.51
		c1.84,0,3.67,0,5.49,0c1.82,0,3.65-0.01,5.49-0.02L120.21,93.95z"/>
	<path class="st5" d="M120.21,93.95h-13.08v-1.16l5.79-7.46l-5.69-7.95v-0.84h12.69l0.39,6.16h-1.03c-0.1-0.74-0.25-1.42-0.42-2.04
		c-0.17-0.62-0.43-1.15-0.76-1.59c-0.34-0.44-0.76-0.78-1.29-1.02c-0.52-0.24-1.19-0.36-1.99-0.36h-4.42l4.81,6.66l-5.81,7.51
		c1.84,0,3.67,0,5.49,0c1.82,0,3.65-0.01,5.49-0.02L120.21,93.95z"/>
	<path class="st3" d="M128.34,80.09l-2.58,6.98h5.26L128.34,80.09z M133.69,93.95l-2.23-5.67h-6.1c-0.21,0.53-0.44,1.07-0.68,1.61
		c-0.24,0.55-0.36,1.11-0.36,1.69c0,0.5,0.16,0.83,0.49,0.99c0.33,0.16,0.68,0.24,1.08,0.24v1.14h-4.73v-1.14
		c0.38,0,0.68-0.04,0.9-0.13c0.22-0.09,0.39-0.22,0.52-0.39c0.13-0.17,0.23-0.38,0.32-0.64c0.08-0.26,0.19-0.54,0.31-0.87
		l5.35-14.51h0.89l6.72,17.68L133.69,93.95"/>
	<path class="st5" d="M128.34,80.09l-2.58,6.98h5.26L128.34,80.09z M133.69,93.95l-2.23-5.67h-6.1c-0.21,0.53-0.44,1.07-0.68,1.61
		c-0.24,0.55-0.36,1.11-0.36,1.69c0,0.5,0.16,0.83,0.49,0.99c0.33,0.16,0.68,0.24,1.08,0.24v1.14h-4.73v-1.14
		c0.38,0,0.68-0.04,0.9-0.13c0.22-0.09,0.39-0.22,0.52-0.39c0.13-0.17,0.23-0.38,0.32-0.64c0.08-0.26,0.19-0.54,0.31-0.87
		l5.35-14.51h0.89l6.72,17.68L133.69,93.95"/>
	<rect x="35.08" y="106.94" class="st3" width="103.01" height="0.29"/>
</g>
</svg>
